<?xml version="1.0" standalone="no"?>
<!DOCTYPE svg PUBLIC "-//W3C//DTD SVG 20010904//EN"
 "http://www.w3.org/TR/2001/REC-SVG-20010904/DTD/svg10.dtd">
<svg version="1.0" xmlns="http://www.w3.org/2000/svg"
 width="260.000000pt" height="260.000000pt" viewBox="0 0 260.000000 260.000000"
 preserveAspectRatio="xMidYMid meet">
<metadata>
Created by potrace 1.14, written by Peter Selinger 2001-2017
</metadata>
<g transform="translate(0.000000,260.000000) scale(0.100000,-0.100000)"
fill="#000000" stroke="none">
<path d="M1116 1902 c-2 -4 -7 -46 -11 -92 -3 -47 -8 -107 -10 -135 -3 -27 -7
-95 -10 -150 -3 -55 -7 -140 -10 -190 -8 -122 -13 -244 -20 -470 -3 -104 -7
-209 -9 -232 l-3 -43 84 0 83 0 1 148 c1 81 2 188 4 237 14 424 24 647 30 653
9 9 227 -628 270 -790 l18 -68 73 0 73 0 11 43 c14 50 108 356 117 377 3 8 7
20 8 25 8 32 130 384 141 405 11 22 13 22 12 5 0 -11 3 -69 6 -130 11 -196 16
-315 22 -585 3 -146 7 -276 7 -290 2 -24 5 -25 83 -28 l81 -3 -2 68 c-2 37 -6
154 -9 258 -8 226 -13 336 -21 470 -4 55 -8 129 -10 165 -2 56 -7 117 -20 275
-2 17 -3 42 -4 58 l-1 27 -85 0 -84 0 -14 -32 c-28 -64 -40 -95 -84 -213 -57
-153 -131 -370 -178 -521 -21 -66 -39 -123 -42 -127 -3 -4 -38 90 -78 210 -40
120 -82 243 -93 273 -32 87 -111 293 -122 315 -5 11 -16 37 -24 58 l-15 37
-80 0 c-44 0 -82 -4 -85 -8z"/>
<path d="M506 1874 c-32 -6 -61 -16 -65 -22 -11 -19 -4 -1014 8 -1070 24 -112
73 -171 169 -198 70 -21 173 -14 230 15 l39 20 -16 63 c-8 35 -16 64 -17 65 0
2 -22 -4 -48 -13 -84 -29 -160 -3 -188 64 -8 18 -12 135 -13 340 l-1 312 126
0 126 0 0 70 0 70 -127 0 -126 0 1 150 c1 170 11 156 -98 134z"/>
</g>
</svg>
